<svg width="151" height="30" viewBox="0 0 151 30" fill="none" xmlns="http://www.w3.org/2000/svg">
<g>
<path d="M121.273 29.482V9.38H127.429V10.748C128.949 9.58267 130.748 9 132.825 9C134.396 9 135.777 9.342 136.967 10.026C138.183 10.71 139.133 11.66 139.817 12.876C140.501 14.092 140.843 15.498 140.843 17.094V29.482H134.687V17.93C134.687 16.8153 134.358 15.9287 133.699 15.27C133.041 14.6113 132.154 14.282 131.039 14.282C130.254 14.282 129.557 14.4213 128.949 14.7C128.367 14.9787 127.86 15.3713 127.429 15.878V29.482H121.273Z" fill="#2B2B2B"/>
<path d="M45.0995 29.862C43.0475 29.862 41.1981 29.406 39.5515 28.494C37.9048 27.5567 36.6001 26.3027 35.6375 24.732C34.6748 23.1613 34.1935 21.4007 34.1935 19.45C34.1935 17.4993 34.6748 15.7387 35.6375 14.168C36.6001 12.572 37.9048 11.318 39.5515 10.406C41.1981 9.46867 43.0475 9 45.0995 9C47.1515 9 49.0008 9.46867 50.6475 10.406C52.2941 11.318 53.5988 12.572 54.5615 14.168C55.5241 15.7387 56.0055 17.4993 56.0055 19.45C56.0055 21.4007 55.5241 23.1613 54.5615 24.732C53.5988 26.3027 52.2941 27.5567 50.6475 28.494C49.0008 29.406 47.1515 29.862 45.0995 29.862ZM45.0995 24.542C46.0368 24.542 46.8728 24.314 47.6075 23.858C48.3421 23.402 48.9248 22.794 49.3555 22.034C49.7861 21.2487 50.0015 20.3873 50.0015 19.45C50.0015 18.4873 49.7861 17.626 49.3555 16.866C48.9248 16.0807 48.3295 15.46 47.5695 15.004C46.8348 14.548 46.0115 14.32 45.0995 14.32C44.1875 14.32 43.3515 14.548 42.5915 15.004C41.8568 15.46 41.2741 16.0807 40.8435 16.866C40.4128 17.626 40.1975 18.4873 40.1975 19.45C40.1975 20.3873 40.4128 21.2487 40.8435 22.034C41.2741 22.794 41.8568 23.402 42.5915 23.858C43.3515 24.314 44.1875 24.542 45.0995 24.542Z" fill="#2B2B2B"/>
<path d="M45 8C43.9104 8 42.9642 7.6129 42.1613 6.83871C41.3871 6.03584 41 5.08961 41 4C41 2.91039 41.3871 1.97849 42.1613 1.2043C42.9642 0.401432 43.9104 0 45 0C46.0896 0 47.0215 0.401432 47.7957 1.2043C48.5986 1.97849 49 2.91039 49 4C49 5.08961 48.5986 6.03584 47.7957 6.83871C47.0215 7.6129 46.0896 8 45 8Z" fill="#FF00A8"/>
<path d="M95 20C93.9104 20 92.9642 19.6129 92.1613 18.8387C91.3871 18.0358 91 17.0896 91 16C91 14.9104 91.3871 13.9785 92.1613 13.2043C92.9642 12.4014 93.9104 12 95 12C96.0896 12 97.0215 12.4014 97.7957 13.2043C98.5986 13.9785 99 14.9104 99 16C99 17.0896 98.5986 18.0358 97.7957 18.8387C97.0215 19.6129 96.0896 20 95 20Z" fill="#00D1FF"/>
<path d="M0 30.482V0.379999H6.156V1.672C7.57467 0.557333 9.24667 0 11.172 0C12.4387 0 13.5787 0.240666 14.592 0.722C15.6053 1.20333 16.454 1.88733 17.138 2.774C17.9487 1.88733 18.9113 1.20333 20.026 0.722C21.1407 0.240666 22.3567 0 23.674 0C25.194 0 26.5367 0.342 27.702 1.026C28.8673 1.71 29.7793 2.66 30.438 3.876C31.122 5.092 31.464 6.498 31.464 8.094V30.482H25.308V8.93C25.308 7.81533 25.004 6.92867 24.396 6.27C23.8133 5.61133 23.028 5.282 22.04 5.282C21.356 5.282 20.7353 5.40867 20.178 5.662C19.6207 5.91533 19.1393 6.29533 18.734 6.802C18.7593 7.00467 18.772 7.22 18.772 7.448C18.7973 7.65067 18.81 7.866 18.81 8.094V30.482H12.654V8.93C12.654 7.81533 12.35 6.92867 11.742 6.27C11.1593 5.61133 10.374 5.282 9.386 5.282C8.702 5.282 8.08133 5.40867 7.524 5.662C6.992 5.89 6.536 6.24467 6.156 6.726V30.482H0Z" fill="#2B2B2B"/>
<path d="M147.354 29.9C146.391 29.9 145.555 29.558 144.846 28.874C144.162 28.1647 143.82 27.3287 143.82 26.366C143.82 25.4033 144.162 24.58 144.846 23.896C145.555 23.1867 146.391 22.832 147.354 22.832C148.317 22.832 149.14 23.1867 149.824 23.896C150.533 24.58 150.888 25.4033 150.888 26.366C150.888 27.3287 150.533 28.1647 149.824 28.874C149.14 29.558 148.317 29.9 147.354 29.9Z" fill="#FFB800"/>
<path d="M68.2406 29.748C66.3406 29.748 64.6053 29.292 63.0346 28.38C61.4893 27.4427 60.2606 26.2013 59.3486 24.656C58.4366 23.0853 57.9806 21.3373 57.9806 19.412C57.9806 17.4867 58.4366 15.7513 59.3486 14.206C60.2859 12.6353 61.5399 11.394 63.1106 10.482C64.7066 9.57 66.4799 9.114 68.4306 9.114C69.3679 9.114 70.2673 9.228 71.1286 9.456C71.9899 9.684 72.8006 10.0133 73.5606 10.444V2.882L79.7166 1.932V29.482H73.6366V28C72.0406 29.1653 70.2419 29.748 68.2406 29.748ZM69.3046 24.504C70.1659 24.504 70.9513 24.3773 71.6606 24.124C72.3699 23.8453 73.0033 23.44 73.5606 22.908V15.878C73.0286 15.3713 72.3953 14.9913 71.6606 14.738C70.9259 14.4593 70.1406 14.32 69.3046 14.32C68.3166 14.32 67.4173 14.548 66.6066 15.004C65.8213 15.4347 65.1879 16.0427 64.7066 16.828C64.2506 17.588 64.0226 18.4493 64.0226 19.412C64.0226 20.3747 64.2506 21.2487 64.7066 22.034C65.1879 22.794 65.8213 23.402 66.6066 23.858C67.4173 24.2887 68.3166 24.504 69.3046 24.504Z" fill="#2B2B2B"/>
<path d="M83.5332 29.482V2.38L89.6892 3.38V7.394C90.3479 6.58333 91.1205 5.97533 92.0072 5.57C92.8939 5.13933 93.8819 4.924 94.9712 4.924C96.0605 4.94933 96.8332 5.114 97.2892 5.418V10.776C96.8839 10.5733 96.4279 10.4213 95.9212 10.32C95.4145 10.2187 94.8952 10.168 94.3632 10.168C93.4005 10.168 92.5012 10.396 91.6652 10.852C90.8545 11.2827 90.1959 11.9033 89.6892 12.714V29.482H83.5332Z" fill="#2B2B2B"/>
<path d="M105.986 29.824C104.568 29.824 103.301 29.558 102.186 29.026C101.097 28.494 100.236 27.7593 99.6025 26.822C98.9945 25.8847 98.6905 24.808 98.6905 23.592C98.6905 21.6667 99.4125 20.1847 100.856 19.146C102.326 18.082 104.365 17.55 106.974 17.55C108.545 17.55 110.065 17.74 111.534 18.12V17.132C111.534 16.1187 111.205 15.3713 110.546 14.89C109.913 14.3833 108.963 14.13 107.696 14.13C106.911 14.13 106.024 14.2567 105.036 14.51C104.074 14.7633 102.934 15.1687 101.616 15.726L99.4125 11.204C101.059 10.4693 102.642 9.92467 104.162 9.57C105.708 9.19 107.253 9 108.798 9C111.585 9 113.751 9.67133 115.296 11.014C116.842 12.3313 117.614 14.1933 117.614 16.6V29.482H111.534V28.266C110.724 28.8233 109.862 29.2287 108.95 29.482C108.064 29.71 107.076 29.824 105.986 29.824ZM104.542 23.478C104.542 24.1113 104.821 24.6053 105.378 24.96C105.936 25.3147 106.708 25.492 107.696 25.492C108.431 25.492 109.115 25.416 109.748 25.264C110.407 25.112 111.002 24.8713 111.534 24.542V21.958C110.952 21.806 110.356 21.692 109.748 21.616C109.14 21.54 108.52 21.502 107.886 21.502C106.822 21.502 105.999 21.6793 105.416 22.034C104.834 22.3633 104.542 22.8447 104.542 23.478Z" fill="#2B2B2B"/>
</g>
</svg>
